HIERARCHY
ROOT Hips
{
	OFFSET 0.00000 0.00000 0.00000
	CHANNELS 6 Xposition Yposition Zposition Zrotation Yrotation Xrotation 
	JOINT LHipJoint
	{
		OFFSET 0 0 0
		CHANNELS 3 Zrotation Yrotation Xrotation
		JOINT LeftHip
		{
			OFFSET 1.80322 -1.53100 0.99595
			CHANNELS 3 Zrotation Yrotation Xrotation
			JOINT LeftKnee
			{
				OFFSET 2.25177 -6.18669 0.00000
				CHANNELS 3 Zrotation Yrotation Xrotation
				JOINT LeftAnkle
				{
					OFFSET 2.26601 -6.22582 0.00000
					CHANNELS 3 Zrotation Yrotation Xrotation
					JOINT LeftToe
					{
						OFFSET 0.23701 -0.65119 2.15848
						CHANNELS 3 Zrotation Yrotation Xrotation
						End Site
						{
							OFFSET 0.00000 -0.00000 1.12949
						}
					}
				}
			}
		}
	}
	JOINT RHipJoint
	{
		OFFSET 0 0 0
		CHANNELS 3 Zrotation Yrotation Xrotation
		JOINT RightHip
		{
			OFFSET -1.93977 -1.53100 0.99595
			CHANNELS 3 Zrotation Yrotation Xrotation
			JOINT RightKnee
			{
				OFFSET -2.28036 -6.26523 0.00000
				CHANNELS 3 Zrotation Yrotation Xrotation
				JOINT RightAnkle
				{
					OFFSET -2.25490 -6.19528 0.00000
					CHANNELS 3 Zrotation Yrotation Xrotation
					JOINT RightToe
					{
						OFFSET -0.28375 -0.77960 2.23137
						CHANNELS 3 Zrotation Yrotation Xrotation
						End Site
						{
							OFFSET -0.00000 -0.00000 1.17899
						}
					}
				}
			}
		}
	}
	JOINT lowerback
	{
		OFFSET 0 0 0
		CHANNELS 3 Zrotation Yrotation Xrotation
		JOINT Chest
		{
			OFFSET -0.00088 2.12090 -0.02806
			CHANNELS 3 Zrotation Yrotation Xrotation
			JOINT Chest2
			{
				OFFSET -0.00286 2.09666 0.12974
				CHANNELS 3 Zrotation Yrotation Xrotation
				JOINT lowerneck
				{
					OFFSET 0 0 0
					CHANNELS 3 Zrotation Yrotation Xrotation
					JOINT Neck
					{
						OFFSET 0.07328 1.83526 0.07290
						CHANNELS 3 Zrotation Yrotation Xrotation
						JOINT Head
						{
							OFFSET -0.06683 1.74974 -0.49542
							CHANNELS 3 Zrotation Yrotation Xrotation
							End Site
							{
								OFFSET -0.03398 1.85163 -0.17573
							}
						}
					}
				}
				JOINT LeftCollar
				{
					OFFSET 0 0 0
					CHANNELS 3 Zrotation Yrotation Xrotation
					JOINT LeftShoulder
					{
						OFFSET 3.02113 1.18018 0.40602
CHANNELS 3 Zrotation Xrotation Yrotation
						JOINT LeftElbow
						{
OFFSET 0 -4.585380 -0.000000
CHANNELS 3 Zrotation Xrotation Yrotation
							JOINT LeftWrist
							{
OFFSET 0 -2.689350 -0.000000
CHANNELS 3 Zrotation Xrotation Yrotation
								JOINT lhand
								{
									OFFSET 0 0 0
CHANNELS 3 Zrotation Xrotation Yrotation
									JOINT LFingers
									{
OFFSET 0 -0.585060 -0.000000
CHANNELS 3 Zrotation Xrotation Yrotation
										End Site
										{
OFFSET 0 -0.471690 -0.000000
										}
									}
								}
								JOINT LThumb
								{
OFFSET 0 0.000000 0.000000
CHANNELS 3 Zrotation Xrotation Yrotation
									End Site
									{
OFFSET 0 -0.478890 0.478890
									}
								}
							}
						}
					}
				}
				JOINT RightCollar
				{
					OFFSET 0 0 0
					CHANNELS 3 Zrotation Yrotation Xrotation
					JOINT RightShoulder
					{
						OFFSET -2.95074 1.18843 0.31430
CHANNELS 3 Zrotation Xrotation Yrotation
						JOINT RightElbow
						{
OFFSET 0 -4.474500 -0.000000
CHANNELS 3 Zrotation Xrotation Yrotation
							JOINT RightWrist
							{
OFFSET 0 -2.938960 -0.000000
CHANNELS 3 Zrotation Xrotation Yrotation
								JOINT rhand
								{
									OFFSET 0 0 0
CHANNELS 3 Zrotation Xrotation Yrotation
									JOINT RFingers
									{
OFFSET 0 -0.405090 -0.000000
CHANNELS 3 Zrotation Xrotation Yrotation
										End Site
										{
OFFSET 0 -0.326600 -0.000000
										}
									}
								}
								JOINT RThumb
								{
OFFSET 0 0.000000 0.000000
CHANNELS 3 Zrotation Xrotation Yrotation
									End Site
									{
OFFSET 0 -0.331580 0.331580
									}
								}
							}
						}
					}
				}
			}
		}
	}
}
MOTION
Frames: 11
Frame Time: 0.008333333333333333
-0.300700 15.535700 8.331000 1.028000 -5.039700 9.614100 0.000000 0.000000 0.000000 -23.313400 -16.036900 -12.295700 2.539700 9.909700 28.684900 1.074200 7.121700 -23.376300 0.036500 1.232400 3.388500 0.000000 0.000000 0.000000 18.805100 13.923000 -16.681100 -3.525100 -11.500100 33.985700 -1.406800 -6.018100 -25.297500 -0.001500 -0.251500 0.691100 -0.823100 -2.282400 -6.699200 0.189600 -3.057800 -9.641600 0.623300 -1.483100 -6.260800 1.100700 -5.045600 -8.916900 -5.320900 -6.153400 30.197000 -2.860600 -3.397400 10.968600 -0.000000 -0.000000 0.000000 6.795300 20.376500 -13.607800 16.856800 -26.668600 4.022800 15.180800 8.207600 -23.227200 0.000000 0.000000 0.000000 -7.125000 0.000000 0.000000 -14.505800 53.368000 3.035600 -0.000000 -0.000000 0.000000 -10.249400 14.862300 5.454900 -11.878100 -19.621600 -2.061200 -13.581700 13.529700 5.023900 0.000000 0.000000 0.000000 7.125000 0.000000 -0.000000 10.837100 34.979300 2.707100
-0.288808 15.540973 8.324422 1.122898 -5.491687 9.440831 0.000000 0.000000 0.000000 -23.663942 -16.056470 -12.210654 2.574585 9.972260 28.887005 1.017583 8.020073 -23.556673 0.048766 1.424728 3.918273 0.000000 0.000000 0.000000 18.640130 14.018553 -16.494607 -3.500110 -11.463686 33.860051 -1.407446 -5.742639 -25.137097 -0.000100 -0.069144 0.189974 -0.684679 -1.985476 -6.814157 0.097310 -2.668426 -9.722658 0.452753 -1.301288 -6.300192 3.308170 -1.975782 -10.813289 -5.337504 -2.149955 35.687298 -3.070440 -1.284693 13.782595 0.000000 0.000000 0.000000 7.798241 19.152940 -16.168142 16.862657 -26.676263 4.025454 10.043097 11.117968 -19.416755 0.000000 0.000000 0.000000 -7.125000 0.000000 0.000000 -17.761748 48.837492 1.728845 0.000000 0.000000 0.000000 -9.974475 13.389240 8.127931 -13.815673 -22.470368 -2.757377 -18.475104 10.058462 5.709469 0.000000 0.000000 0.000000 7.125000 0.000000 0.000000 6.896208 35.925260 1.547245
-0.270213 15.539298 8.310149 1.061668 -5.714674 9.308840 0.000000 0.000000 0.000000 -23.728823 -15.892156 -12.175897 2.578452 9.979113 28.909246 1.012287 8.190664 -23.641791 0.055392 1.518902 4.177793 0.000000 0.000000 0.000000 18.621958 13.978799 -16.443217 -3.494512 -11.455504 33.831906 -1.415222 -5.478347 -25.040479 -0.000100 -0.052956 0.145495 -0.513308 -1.668792 -7.079158 -0.070019 -2.253184 -9.678497 0.178580 -1.112396 -6.120414 6.041120 0.983224 -12.233935 -4.017368 1.085913 42.031602 -2.790178 0.789892 17.637920 0.000000 0.000000 0.000000 8.070231 18.211579 -20.249349 18.549763 -28.855006 4.811813 3.593562 10.847530 -16.238771 0.000000 0.000000 0.000000 -7.125000 0.000000 0.000000 -22.283647 45.004122 0.002340 0.000000 0.000000 0.000000 -9.123703 12.097978 12.392431 -15.930675 -25.426311 -3.616278 -15.155511 5.026414 7.593992 0.000000 0.000000 0.000000 7.125000 0.000000 0.000000 9.944662 37.673300 1.815007
-0.248889 15.531876 8.272485 0.858151 -5.388126 9.213095 0.000000 0.000000 0.000000 -23.440663 -15.678704 -12.291629 2.561169 9.948363 28.809735 1.053344 7.434202 -23.424360 0.061134 1.594950 4.387444 0.000000 0.000000 0.000000 18.777705 13.801354 -16.526483 -3.504458 -11.470082 33.881986 -1.402331 -5.514019 -24.963045 -0.000100 -0.068866 0.189236 -0.414355 -1.505369 -7.175338 -0.081384 -2.031500 -9.383372 0.106768 -1.008095 -5.750979 8.585495 2.695264 -10.773176 -4.337024 3.320523 41.779417 -2.986909 2.103109 17.397808 0.000000 0.000000 0.000000 6.725083 17.250545 -23.023630 21.027778 -31.860760 6.064626 4.557715 4.123255 -17.631973 0.000000 0.000000 0.000000 -7.125000 0.000000 0.000000 -22.000734 46.412093 0.805147 0.000000 0.000000 0.000000 -7.785846 10.897131 16.146677 -17.892851 -28.019694 -4.498869 -12.132759 -2.514364 9.004469 0.000000 0.000000 0.000000 7.125000 0.000000 0.000000 12.762412 38.881011 1.961438
-0.229191 15.535904 8.212101 0.731213 -4.661919 9.488075 0.000000 0.000000 0.000000 -23.025197 -15.479156 -13.007044 2.540464 9.911094 28.689325 1.099047 6.094027 -22.887486 0.060166 1.583107 4.354923 0.000000 0.000000 0.000000 18.773344 13.788997 -17.010603 -3.502888 -11.467796 33.874268 -1.361498 -5.911752 -24.887596 -0.000400 -0.125826 0.345681 -0.381750 -1.430333 -6.904870 -0.100361 -1.931027 -9.313496 0.077176 -0.958435 -5.828952 9.594023 3.362978 -9.711588 -5.119961 4.505647 39.689457 -3.250256 2.633224 16.154995 0.000000 0.000000 0.000000 5.220041 16.958949 -24.502042 22.651257 -33.705248 6.943811 5.408758 -3.432452 -19.367716 0.000000 0.000000 0.000000 -7.125000 0.000000 0.000000 -21.989238 48.133911 1.780815 0.000000 0.000000 0.000000 -5.925156 11.141398 18.830314 -19.857269 -30.469934 -5.458816 -10.012797 -10.176178 10.947117 0.000000 0.000000 0.000000 7.125000 0.000000 0.000000 15.017937 40.625967 1.662185
-0.211938 15.544531 8.153560 0.575569 -3.950469 9.897821 0.000000 0.000000 0.000000 -22.608208 -15.579379 -13.836337 2.548408 9.925426 28.735715 1.118062 5.189799 -22.478716 0.067314 1.674434 4.606660 0.000000 0.000000 0.000000 18.787321 13.772899 -17.559401 -3.474181 -11.425705 33.729383 -1.318030 -6.292163 -24.787060 -0.000700 -0.171767 0.471980 -0.237693 -1.265983 -6.744185 -0.226678 -1.717140 -9.200301 -0.128866 -0.863355 -5.805517 10.003797 3.589154 -9.548869 -5.669512 4.961080 38.203222 -3.438813 2.799287 15.428513 0.000000 0.000000 0.000000 4.515298 16.419776 -26.052369 22.498156 -33.535418 6.859009 4.686975 -9.340454 -19.555632 0.000000 0.000000 0.000000 -7.125000 0.000000 0.000000 -22.727929 48.207126 1.889493 0.000000 0.000000 0.000000 -4.460170 11.454741 21.652753 -20.383870 -31.102027 -5.728284 -6.892101 -17.020264 12.340173 0.000000 0.000000 0.000000 7.125000 0.000000 0.000000 18.076530 41.688665 1.531750
-0.200793 15.551577 8.100355 0.393567 -3.561831 10.151973 0.000000 0.000000 0.000000 -22.246347 -15.762227 -14.428755 2.568087 9.960645 28.849294 1.120861 4.783466 -22.259012 0.075400 1.771258 4.873784 0.000000 0.000000 0.000000 18.866513 13.788881 -17.942832 -3.439916 -11.375229 33.555980 -1.280413 -6.446708 -24.591577 -0.001410 -0.241352 0.663134 -0.185707 -1.001537 -6.327092 -0.277007 -1.365730 -9.080412 -0.198207 -0.690586 -5.912268 9.997264 3.610490 -9.727521 -5.854449 5.038971 37.413954 -3.474690 2.798116 15.089456 0.000000 0.000000 0.000000 4.228393 16.593777 -27.834878 22.450051 -33.481883 6.832442 1.914412 -12.626734 -19.589639 0.000000 0.000000 0.000000 -7.125000 0.000000 0.000000 -25.232162 47.854282 1.890817 0.000000 0.000000 0.000000 -3.758704 12.189569 24.108378 -20.757821 -31.544554 -5.922688 -2.775378 -20.482063 13.287866 0.000000 0.000000 0.000000 7.125000 0.000000 0.000000 21.892225 42.181319 1.607487
-0.193888 15.558346 8.076498 0.300841 -3.339279 10.431742 0.000000 0.000000 0.000000 -22.011598 -15.815561 -14.899218 2.573898 9.971053 28.882968 1.132280 4.308159 -22.083445 0.084880 1.879342 5.172299 0.000000 0.000000 0.000000 18.881614 13.945627 -18.235133 -3.418386 -11.343419 33.446954 -1.245119 -6.724515 -24.494214 -0.001678 -0.262534 0.721254 -0.117907 -0.805855 -6.217387 -0.332835 -1.106170 -8.993829 -0.290583 -0.566053 -5.881958 10.048008 3.651893 -9.811585 -6.033481 5.135825 36.788375 -3.521705 2.816564 14.821552 0.000000 0.000000 0.000000 4.288402 17.403605 -29.601963 22.175656 -33.174987 6.681706 -1.757827 -11.732234 -18.883577 0.000000 0.000000 0.000000 -7.125000 0.000000 0.000000 -28.116810 46.730831 1.301882 0.000000 0.000000 0.000000 -3.426652 12.942318 25.969673 -20.832903 -31.632815 -5.962080 -1.610281 -22.752408 14.244070 0.000000 0.000000 0.000000 7.125000 0.000000 0.000000 23.226004 42.945078 1.250787
-0.193939 15.561246 8.082064 0.302199 -3.154794 10.603306 0.000000 0.000000 0.000000 -21.946253 -15.876865 -15.072139 2.568039 9.960631 28.849186 1.137394 4.034098 -21.974536 0.088231 1.915343 5.271737 0.000000 0.000000 0.000000 18.864041 14.089595 -18.314727 -3.412315 -11.334323 33.415883 -1.227929 -7.004224 -24.544558 -0.002200 -0.300000 0.824354 -0.028207 -0.737542 -6.148258 -0.417148 -1.019572 -8.985108 -0.426826 -0.530953 -5.914408 10.380601 3.784119 -9.453104 -6.446691 5.395219 35.522231 -3.674095 2.910967 14.196449 0.000000 0.000000 0.000000 3.589435 18.720733 -26.987150 21.304679 -32.182119 6.211522 -6.663304 -11.290757 -19.838682 0.000000 0.000000 0.000000 -7.125000 0.000000 0.000000 -32.818393 46.906413 1.727018 0.000000 0.000000 0.000000 -3.004429 14.271820 25.137121 -20.790672 -31.583153 -5.939950 -0.157165 -24.820169 16.306853 0.000000 0.000000 0.000000 7.125000 0.000000 0.000000 25.287894 44.664116 0.224211
-0.198774 15.561671 8.122089 0.309789 -3.065874 10.854010 0.000000 0.000000 0.000000 -21.904784 -16.016859 -15.172135 2.572744 9.969058 28.876489 1.153736 3.907535 -22.045907 0.089271 1.926682 5.303190 0.000000 0.000000 0.000000 18.860479 14.227239 -18.360070 -3.412013 -11.333869 33.414250 -1.229194 -7.207549 -24.692254 -0.001900 -0.281911 0.774592 0.309182 -0.537347 -6.066784 -0.642156 -0.769140 -9.215727 -0.845942 -0.436460 -6.216585 11.074091 3.956234 -8.185307 -7.196711 5.732236 32.016241 -3.949342 3.035848 12.470673 0.000000 0.000000 0.000000 2.437341 19.300132 -13.251963 17.746669 -27.831087 4.430669 -6.030663 -11.285024 -23.838424 0.000000 0.000000 0.000000 -7.125000 0.000000 0.000000 -34.660104 50.373531 5.130345 0.000000 0.000000 0.000000 -1.508768 15.527881 12.973331 -18.802712 -29.172398 -4.934484 -2.022253 -26.121118 21.278075 0.000000 0.000000 0.000000 7.125000 0.000000 0.000000 25.983892 49.390522 -2.994365
-0.215387 15.558869 8.201577 0.390152 -3.094445 11.103324 0.000000 0.000000 0.000000 -21.976952 -16.082768 -15.035821 2.558847 9.944174 28.796128 1.178553 3.869695 -22.237041 0.089220 1.926686 5.303067 0.000000 0.000000 0.000000 18.840235 14.279610 -18.266395 -3.413162 -11.335576 33.420078 -1.265720 -7.213372 -24.981594 -0.001700 -0.262895 0.722366 0.629021 -0.308246 -6.215010 -0.851587 -0.479218 -9.467701 -1.242640 -0.322542 -6.407242 11.645527 4.159170 -7.045704 -8.251102 6.118466 27.348472 -4.280307 3.133733 10.499638 0.000000 0.000000 0.000000 5.448644 20.366436 7.376945 14.042602 -22.795297 2.844738 -4.105054 -2.987544 -24.563506 0.000000 0.000000 0.000000 -7.125000 0.000000 0.000000 -33.432764 51.291594 5.724696 0.000000 0.000000 0.000000 -3.111534 15.630865 -9.034670 -14.981628 -24.120098 -3.218664 -6.496149 -16.647209 24.164163 0.000000 0.000000 0.000000 7.125000 0.000000 0.000000 23.419871 52.722126 -4.655618
